<?xml version="1.0" standalone="no"?>
<!DOCTYPE svg PUBLIC "-//W3C//DTD SVG 20010904//EN"
 "http://www.w3.org/TR/2001/REC-SVG-20010904/DTD/svg10.dtd">
<svg version="1.0" xmlns="http://www.w3.org/2000/svg"
 width="700.000000pt" height="700.000000pt" viewBox="0 0 700.000000 700.000000"
 preserveAspectRatio="xMidYMid meet">
<metadata>
Created by potrace 1.11, written by Peter Selinger 2001-2013
</metadata>
<g transform="translate(0.000000,700.000000) scale(0.100000,-0.100000)"
fill="#000000" stroke="none">
<path d="M67 6898 c36 -57 94 -146 128 -198 98 -149 461 -706 523 -803 32 -48
132 -203 225 -343 92 -140 167 -260 167 -265 0 -5 4 -9 8 -9 5 0 14 -11 20
-25 7 -14 17 -31 22 -38 6 -7 72 -106 147 -222 75 -115 172 -266 217 -335 45
-69 135 -207 201 -307 65 -101 121 -183 125 -183 4 0 43 55 87 123 229 349
283 433 283 442 0 6 -44 76 -98 157 -53 81 -136 207 -183 280 -116 177 -382
583 -554 845 -77 117 -144 221 -150 231 -5 9 -35 55 -66 102 -30 47 -58 90
-61 95 -7 11 4776 15 4787 3 3 -3 -47 -86 -111 -184 -64 -99 -151 -231 -192
-294 -42 -63 -130 -198 -197 -300 -128 -197 -245 -374 -362 -555 -39 -60 -76
-115 -82 -122 -6 -7 -11 -14 -11 -16 0 -3 -31 -51 -68 -108 -66 -101 -165
-251 -307 -469 -38 -58 -123 -188 -190 -290 -67 -102 -143 -219 -170 -260 -27
-41 -121 -185 -210 -320 -88 -135 -196 -300 -240 -367 -44 -68 -197 -300 -341
-517 -143 -217 -266 -406 -273 -420 -15 -27 -22 -14 179 -321 44 -66 101 -155
129 -199 l50 -79 128 197 c70 107 180 275 243 373 63 97 161 247 217 332 242
371 319 489 460 706 82 127 185 284 228 350 43 66 103 158 133 205 31 47 110
168 177 270 66 102 132 203 145 225 13 22 28 45 33 50 7 8 315 481 537 824 26
41 53 81 59 90 6 9 37 57 70 106 32 50 125 194 208 320 82 127 176 271 208
320 32 50 95 146 140 215 174 266 430 660 482 740 l33 50 -3500 0 -3500 0 67
-102z"/>
<path d="M3466 5322 c-16 -26 -62 -96 -101 -157 -40 -60 -140 -213 -222 -340
-481 -741 -768 -1181 -774 -1185 -3 -3 -8 -10 -10 -16 -2 -6 -130 -203 -284
-439 -154 -236 -384 -589 -512 -785 -127 -195 -336 -516 -465 -713 -128 -196
-238 -365 -243 -375 -11 -18 -119 -184 -280 -429 -55 -84 -158 -243 -230 -353
-71 -110 -177 -271 -233 -358 -57 -86 -106 -160 -109 -164 -2 -5 1571 -8 3496
-8 l3501 0 -63 98 c-76 117 -139 213 -311 478 -72 110 -135 207 -141 216 -5 8
-17 26 -26 39 -14 19 -369 565 -654 1004 -32 50 -97 149 -144 220 -81 124
-317 487 -444 683 -33 51 -64 91 -69 90 -10 -4 -329 -484 -355 -535 l-16 -31
107 -164 c111 -168 199 -303 466 -711 85 -131 209 -319 275 -420 198 -301 265
-406 265 -414 0 -4 -1078 -8 -2395 -8 -1317 0 -2395 3 -2395 7 0 4 48 81 106
170 59 90 135 206 169 258 34 52 124 190 200 305 75 116 176 270 224 343 47
73 140 215 206 315 66 101 190 290 275 420 85 131 205 313 265 405 61 93 157
240 214 328 57 87 146 222 196 299 51 77 132 201 180 275 189 290 225 344 407
620 104 157 193 292 198 300 103 151 132 203 124 219 -5 11 -70 111 -144 225
-74 113 -139 214 -145 223 -13 24 -75 113 -78 113 -1 -1 -15 -22 -31 -48z"/>
</g>
</svg>
